HIERARCHY
ROOT Hips
{
	OFFSET -13.091600 -28.302996 44.698402
	CHANNELS 6 Xposition Yposition Zposition Zrotation Xrotation Yrotation
	JOINT Chest
	{
		OFFSET -0.673000 0.623899 5.369202
		CHANNELS 6 Xposition Yposition Zposition Zrotation Xrotation Yrotation
		JOINT Chest2
		{
			OFFSET 0.000000 0.000000 4.415001
			CHANNELS 6 Xposition Yposition Zposition Zrotation Xrotation Yrotation
			JOINT Neck
			{
				OFFSET 0.000000 0.000002 10.273300
				CHANNELS 6 Xposition Yposition Zposition Zrotation Xrotation Yrotation
				JOINT Head
				{
					OFFSET 0.000000 0.000000 2.173897
					CHANNELS 6 Xposition Yposition Zposition Zrotation Xrotation Yrotation
					End Site
					{
						OFFSET 0.000000 0.000000 9.961800
					}
				}
			}
			JOINT LeftCollar
			{
				OFFSET 2.359900 -0.565201 5.928101
				CHANNELS 6 Xposition Yposition Zposition Zrotation Xrotation Yrotation
				JOINT LeftShoulder
				{
					OFFSET 5.443700 0.000000 0.000000
					CHANNELS 6 Xposition Yposition Zposition Zrotation Xrotation Yrotation
					JOINT LeftElbow
					{
						OFFSET 0.000000 0.000000 -10.615799
						CHANNELS 6 Xposition Yposition Zposition Zrotation Xrotation Yrotation
						JOINT LeftWrist
						{
							OFFSET 0.000000 -0.000002 -13.110302
							CHANNELS 6 Xposition Yposition Zposition Zrotation Xrotation Yrotation
							End Site
							{
								OFFSET 0.000000 0.000000 -2.173901
							}
						}
					}
				}
			}
			JOINT RightCollar
			{
				OFFSET -2.636600 -1.718800 6.889698
				CHANNELS 6 Xposition Yposition Zposition Zrotation Xrotation Yrotation
				JOINT RightShoulder
				{
					OFFSET -4.139101 0.000000 0.000000
					CHANNELS 6 Xposition Yposition Zposition Zrotation Xrotation Yrotation
					JOINT RightElbow
					{
						OFFSET 0.000000 0.000000 -10.471802
						CHANNELS 6 Xposition Yposition Zposition Zrotation Xrotation Yrotation
						JOINT RightWrist
						{
							OFFSET 0.000000 0.000000 -12.281898
							CHANNELS 6 Xposition Yposition Zposition Zrotation Xrotation Yrotation
							End Site
							{
								OFFSET 0.000000 -0.000002 -2.173901
							}
						}
					}
				}
			}
		}
	}
	JOINT LeftHip
	{
		OFFSET 2.273400 0.176701 -2.518002
		CHANNELS 6 Xposition Yposition Zposition Zrotation Xrotation Yrotation
		JOINT LeftKnee
		{
			OFFSET 0.000000 -0.000002 -20.456402
			CHANNELS 6 Xposition Yposition Zposition Zrotation Xrotation Yrotation
			JOINT LeftAnkle
			{
				OFFSET 0.000000 -0.000002 -16.635300
				CHANNELS 6 Xposition Yposition Zposition Zrotation Xrotation Yrotation
				End Site
				{
					OFFSET 0.000000 -8.812399 0.000001
				}
			}
		}
	}
	JOINT RightHip
	{
		OFFSET -1.914800 0.018101 -2.699299
		CHANNELS 6 Xposition Yposition Zposition Zrotation Xrotation Yrotation
		JOINT RightKnee
		{
			OFFSET 0.000000 -0.000002 -20.148901
			CHANNELS 6 Xposition Yposition Zposition Zrotation Xrotation Yrotation
			JOINT RightAnkle
			{
				OFFSET 0.000000 -0.000002 -16.838301
				CHANNELS 6 Xposition Yposition Zposition Zrotation Xrotation Yrotation
				End Site
				{
					OFFSET 0.000000 -8.328398 0.000001
				}
			}
		}
	}
}
MOTION
Frames: 9
Frame Time: 0.041667
-31.888201 0.507208 43.931107 2908.635512 2.827492 -8.609921 -0.673001 0.623898 5.369200 -1.357563 2.616375 1.084782 -0.000004 0.000000 4.415003 1.600733 -1.727023 -0.237428 0.000001 -0.000001 10.273303 -31.371882 13.240998 8.109627 0.000005 -0.000006 2.173901 -2.178675 0.803350 -4.635442 2.359904 -0.565200 5.928096 8.970120 -1.934908 -37.206909 5.443687 -0.000003 0.000006 -50.537109 308.882301 -143.423645 -0.000001 0.000000 -10.615797 645.699146 -164.544243 202.393381 0.000002 -0.000005 -13.110291 -2383.608378 201.239475 -518.205305 -2.636600 -1.718800 6.889699 184.012850 -186.202295 187.531764 -4.139105 0.000001 -0.000006 -233.880485 -63.369225 163.660854 0.000000 0.000003 -10.471803 -48.458263 -47.582591 -414.660648 0.000004 -0.000005 -12.281903 27.144721 1.109503 54.889248 2.273398 0.176704 -2.517999 -521.058521 -162.026431 -172.880011 0.000000 -0.000004 -20.456392 808.201804 125.145089 -101.658644 -0.000005 -0.000001 -16.635298 -319.160123 27.070121 26.300328 -1.914799 0.018103 -2.699300 146.684268 203.289529 172.161953 0.000002 -0.000004 -20.148893 -841.659350 -236.915111 141.486754 0.000001 -0.000001 -16.838301 1059.606916 15.260091 -3.224699
-31.943598 0.101109 44.429504 2908.759220 2.851344 -8.329025 -0.673000 0.623897 5.369201 -0.927646 2.793985 1.375088 -0.000000 -0.000001 4.415009 1.471840 -1.635788 -0.223256 -0.000006 0.000002 10.273295 -32.136860 14.351411 8.018872 -0.000001 0.000000 2.173900 -1.652291 0.894659 -5.006062 2.359900 -0.565202 5.928089 8.736576 -1.642496 -37.884385 5.443701 0.000000 0.000007 -48.815324 309.068328 -142.248675 0.000001 -0.000001 -10.615798 646.333588 -164.841247 201.934570 -0.000002 -0.000003 -13.110304 -2382.914649 201.744117 -518.538345 -2.636602 -1.718801 6.889700 183.617833 -185.242790 188.620947 -4.139098 0.000007 -0.000004 -235.195269 -62.500957 163.071709 -0.000007 -0.000001 -10.471797 -45.977606 -45.872189 -409.800968 -0.000005 -0.000002 -12.281903 29.260957 1.486540 52.642471 2.273401 0.176702 -2.518003 -520.348891 -161.217668 -172.207989 0.000000 -0.000005 -20.456398 804.924789 126.395082 -102.765476 -0.000008 -0.000001 -16.635298 -314.722276 26.211525 29.180836 -1.914799 0.018098 -2.699294 148.160354 202.063032 173.244292 0.000005 -0.000005 -20.148893 -847.902689 -235.971397 146.013257 0.000002 -0.000004 -16.838299 1062.996438 17.764712 -3.976964
-32.009602 -0.283989 44.982704 2908.779765 2.980969 -8.091167 -0.673004 0.623896 5.369214 -0.228681 3.080234 1.680376 0.000002 -0.000002 4.415010 1.282039 -1.566841 -0.211710 -0.000001 -0.000004 10.273303 -32.908647 15.568451 7.921980 -0.000008 -0.000000 2.173902 -1.139662 0.896670 -5.407329 2.359907 -0.565205 5.928100 8.452612 -1.194366 -38.285679 5.443699 -0.000004 -0.000001 -46.384317 309.486581 -140.932798 -0.000003 0.000001 -10.615793 647.853388 -165.484992 201.483586 0.000002 -0.000004 -13.110306 -2382.258514 202.647328 -518.387808 -2.636602 -1.718805 6.889706 182.204544 -183.708101 189.284377 -4.139100 -0.000003 -0.000002 -236.436478 -61.832241 161.334136 -0.000006 -0.000001 -10.471799 -43.834856 -44.530139 -405.948550 0.000007 -0.000002 -12.281892 33.044681 1.235781 50.218942 2.273400 0.176701 -2.518001 -519.827939 -160.395600 -171.318766 0.000003 0.000001 -20.456406 802.725577 127.011193 -104.806439 -0.000011 -0.000002 -16.635298 -312.456101 25.833770 30.359989 -1.914798 0.018098 -2.699294 148.824740 201.187143 174.001241 0.000003 -0.000005 -20.148895 -852.968941 -235.050360 149.928226 -0.000002 -0.000000 -16.838299 1067.353880 20.836266 -6.856726
-32.084503 -0.645990 45.579605 2908.525354 3.356234 -7.879877 -0.672995 0.623896 5.369209 0.887100 3.388743 1.814370 0.000002 0.000001 4.414999 0.993219 -1.569534 -0.201242 0.000001 -0.000002 10.273314 -33.524044 16.634782 7.810545 -0.000005 -0.000002 2.173892 -0.745640 0.894125 -5.704370 2.359902 -0.565199 5.928111 8.204612 -0.634574 -38.182011 5.443701 -0.000004 0.000005 -43.472604 310.368550 -139.625200 -0.000007 0.000002 -10.615801 649.309584 -166.194198 200.684181 -0.000002 -0.000003 -13.110297 -2381.060335 202.880756 -519.103174 -2.636601 -1.718802 6.889705 180.944989 -182.236291 189.747081 -4.139101 -0.000002 -0.000002 -239.211557 -60.925943 158.254404 -0.000009 -0.000006 -10.471798 -42.968054 -43.484809 -403.215737 0.000001 -0.000002 -12.281901 35.038693 0.613816 47.632950 2.273401 0.176702 -2.517999 -519.055745 -159.440125 -170.181157 -0.000002 -0.000000 -20.456398 799.587843 128.953357 -106.238033 -0.000010 -0.000007 -16.635296 -311.126892 25.294281 30.775702 -1.914794 0.018101 -2.699301 148.409861 200.946378 174.307958 -0.000003 -0.000006 -20.148901 -857.162895 -234.517168 153.552802 -0.000002 -0.000002 -16.838303 1072.652249 24.357062 -10.014774
-32.147598 -0.976891 46.188904 2907.530660 3.770154 -7.613345 -0.673001 0.623902 5.369207 2.788019 3.968131 1.782820 -0.000000 -0.000000 4.415007 0.582048 -1.601739 -0.201256 -0.000004 -0.000000 10.273301 -34.075141 17.517338 7.800223 0.000002 -0.000003 2.173888 -0.191559 0.949312 -5.976881 2.359901 -0.565203 5.928098 8.754793 -0.780104 -38.036593 5.443692 -0.000005 0.000001 -42.644074 310.220744 -138.630833 -0.000003 0.000001 -10.615786 649.733602 -166.628339 200.206751 0.000000 -0.000001 -13.110293 -2379.882045 203.102123 -520.543688 -2.636602 -1.718806 6.889703 179.620301 -180.699731 189.905296 -4.139095 -0.000001 -0.000002 -241.688211 -59.931563 155.140165 -0.000007 -0.000001 -10.471801 -43.255455 -42.349584 -401.605342 0.000006 -0.000002 -12.281906 37.324382 -0.005100 44.681926 2.273400 0.176703 -2.518010 -517.822650 -158.605284 -168.919744 0.000003 -0.000002 -20.456400 793.509084 135.410140 -105.868834 -0.000010 0.000002 -16.635300 -307.449901 23.872519 33.687531 -1.914799 0.018109 -2.699303 147.394717 201.171351 174.281620 -0.000003 -0.000001 -20.148903 -861.116646 -234.547084 157.388199 -0.000002 -0.000003 -16.838299 1079.394028 29.033635 -13.162091
-32.208000 -1.257786 46.773499 2906.555856 4.483506 -7.488779 -0.673004 0.623893 5.369205 4.537906 4.468719 1.732381 0.000002 -0.000004 4.415003 0.071723 -1.658587 -0.219232 -0.000005 0.000001 10.273311 -33.969782 18.151506 7.684692 0.000000 -0.000002 2.173903 0.016913 0.914399 -6.184488 2.359900 -0.565202 5.928102 9.426330 -1.059501 -37.697921 5.443698 -0.000002 0.000002 -40.580381 310.499198 -136.791545 0.000001 0.000001 -10.615788 650.647099 -167.235816 199.486357 0.000001 -0.000001 -13.110300 -2378.088492 203.195164 -523.438487 -2.636603 -1.718805 6.889704 178.805296 -179.446364 190.375677 -4.139098 0.000004 0.000003 -243.688473 -59.020839 152.544530 -0.000005 0.000002 -10.471801 -42.554896 -41.964682 -399.674475 0.000007 -0.000001 -12.281902 39.334332 1.984713 43.434631 2.273398 0.176701 -2.518004 -516.516172 -157.487770 -167.288886 0.000006 -0.000007 -20.456396 790.534946 137.084492 -107.026892 -0.000009 -0.000004 -16.635300 -308.048471 23.449438 32.085589 -1.914800 0.018098 -2.699303 145.457539 202.234661 173.907681 -0.000000 -0.000006 -20.148891 -864.377214 -234.828570 160.952055 -0.000000 -0.000004 -16.838303 1086.820247 34.462618 -15.710040
-32.257900 -1.494692 47.303005 2905.344344 5.365741 -7.463119 -0.673001 0.623897 5.369194 6.394183 5.069033 1.536227 -0.000003 -0.000004 4.415004 -0.480479 -1.755768 -0.215434 0.000003 0.000000 10.273315 -33.216234 18.416285 7.470567 0.000002 0.000001 2.173896 -0.413102 0.809331 -5.813800 2.359903 -0.565203 5.928108 10.320893 -1.521942 -36.829708 5.443696 -0.000004 0.000007 -38.866386 310.774509 -135.058371 0.000003 0.000000 -10.615798 651.863528 -167.976686 198.748751 -0.000001 -0.000004 -13.110301 -2377.006809 203.094350 -527.750139 -2.636597 -1.718801 6.889714 178.134093 -178.389405 190.929687 -4.139096 0.000009 0.000001 -243.939824 -58.248523 151.429693 -0.000005 0.000000 -10.471797 -43.825417 -40.889402 -399.346790 0.000006 0.000004 -12.281894 41.356700 -0.260233 41.625522 2.273398 0.176702 -2.518008 -515.207617 -156.318469 -165.486659 0.000001 0.000001 -20.456398 787.788828 139.090409 -107.988296 -0.000012 -0.000000 -16.635300 -308.506613 23.324806 30.839489 -1.914802 0.018103 -2.699302 142.632136 203.961442 173.014402 0.000004 -0.000006 -20.148899 -864.530976 -235.321327 162.512877 -0.000000 -0.000005 -16.838301 1093.018562 39.207417 -17.656476
-32.306503 -1.694988 47.744499 2903.906617 6.278883 -7.487048 -0.673000 0.623900 5.369211 8.259654 5.933478 1.270001 0.000000 -0.000001 4.415005 -1.018983 -1.949405 -0.237080 0.000000 -0.000001 10.273314 -32.241706 18.223517 7.292805 0.000000 -0.000006 2.173889 -0.890451 0.721465 -5.440513 2.359897 -0.565202 5.928112 11.516554 -2.215064 -35.783265 5.443686 -0.000003 0.000000 -37.683783 310.791666 -133.326918 0.000004 0.000000 -10.615803 652.467317 -168.493500 197.822578 -0.000001 -0.000003 -13.110295 -2374.783118 202.843860 -533.810757 -2.636599 -1.718803 6.889709 177.559770 -177.572310 191.499434 -4.139095 0.000005 0.000001 -243.720848 -57.161197 150.570919 0.000005 -0.000002 -10.471802 -45.458245 -39.759279 -399.125164 -0.000001 0.000002 -12.281893 41.634217 -1.912261 38.435619 2.273405 0.176705 -2.517995 -513.837645 -155.115700 -163.683503 0.000000 -0.000003 -20.456396 785.930415 140.451147 -108.990128 -0.000010 -0.000001 -16.635300 -309.318914 23.314159 29.660544 -1.914796 0.018106 -2.699292 137.104259 205.925450 170.570615 0.000004 -0.000004 -20.148907 -860.542801 -236.389459 162.586096 -0.000001 -0.000003 -16.838303 1096.126680 41.960731 -16.401123
-32.356201 -1.860893 48.074604 2902.544513 7.424246 -7.557074 -0.672999 0.623894 5.369209 9.686770 6.635511 1.035956 -0.000003 0.000001 4.415012 -1.408892 -2.173297 -0.263452 -0.000002 -0.000006 10.273311 -31.129229 17.812070 7.384110 -0.000001 -0.000006 2.173902 -1.379452 0.510077 -5.120094 2.359902 -0.565207 5.928111 12.631192 -2.867616 -34.788561 5.443701 -0.000001 0.000012 -36.287142 310.519005 -131.382869 -0.000009 0.000001 -10.615780 653.703800 -169.278630 196.722767 0.000000 -0.000007 -13.110294 -2373.170756 202.584353 -541.872457 -2.636601 -1.718810 6.889715 177.289144 -177.256113 192.237395 -4.139093 0.000007 0.000001 -240.802663 -56.531399 151.885498 0.000000 -0.000010 -10.471797 -46.134933 -38.501807 -398.646122 -0.000008 0.000002 -12.281899 42.405783 -3.189362 34.986783 2.273401 0.176699 -2.517999 -512.257631 -153.706878 -161.758550 0.000000 -0.000004 -20.456398 785.326681 140.643827 -110.400172 -0.000003 -0.000000 -16.635300 -310.506137 23.316107 28.756152 -1.914798 0.018106 -2.699296 131.803322 208.021239 167.525348 0.000002 -0.000005 -20.148903 -856.756800 -237.514856 162.516483 -0.000003 -0.000006 -16.838301 1096.610367 43.012088 -14.612546
